<svg width="241" height="89" viewBox="0 0 241 89" fill="none" xmlns="http://www.w3.org/2000/svg">
<g clip-path="url(#clip0_6109_6635)">
<path d="M16.8522 12.9112C17.2583 12.5631 17.6689 12.2195 18.0929 11.8848C17.6689 12.215 17.2583 12.5631 16.8522 12.9112Z" fill="white"/>
<path d="M34.1685 79.7753C24.7517 78.2802 15.8971 72.8488 10.1533 64.8155C4.37377 56.8357 1.87451 46.3789 3.56597 36.3462C5.01197 27.4604 9.73379 19.0567 16.7273 13.0138C16.7674 12.9781 16.812 12.9469 16.8522 12.9112C17.2583 12.5631 17.6689 12.215 18.0929 11.8847C18.5749 11.5009 19.0703 11.1305 19.5746 10.7734C10.5728 16.1558 3.74003 25.3405 1.19167 35.8508C-1.42809 46.3254 0.308006 57.9916 6.10986 67.4798C11.8225 77.0038 21.5874 84.2204 32.7091 86.9026C43.7907 89.6563 56.1486 87.7908 66.1635 81.6408L63.4991 77.5974L60.8392 73.5361C53.3593 78.9586 43.6121 81.3373 34.1685 79.7753Z" fill="white"/>
<path d="M34.1685 79.7753C24.7517 78.2802 15.8971 72.8488 10.1533 64.8155C4.37377 56.8357 1.87451 46.3789 3.56597 36.3462C5.01197 27.4604 9.73379 19.0567 16.7273 13.0138C16.7674 12.9781 16.812 12.9469 16.8522 12.9112C17.2583 12.5631 17.6689 12.215 18.0929 11.8847C18.5749 11.5009 19.0703 11.1305 19.5746 10.7734C10.5728 16.1558 3.74003 25.3405 1.19167 35.8508C-1.42809 46.3254 0.308006 57.9916 6.10986 67.4798C11.8225 77.0038 21.5874 84.2204 32.7091 86.9026C43.7907 89.6563 56.1486 87.7908 66.1635 81.6408L63.4991 77.5974L60.8392 73.5361C53.3593 78.9586 43.6121 81.3373 34.1685 79.7753Z" fill="url(#paint0_linear_6109_6635)"/>
<path d="M19.5746 10.7734C19.0703 11.1305 18.5794 11.5054 18.0929 11.8847C18.5749 11.5009 19.0703 11.1305 19.5746 10.7734Z" fill="black"/>
<path d="M19.5746 10.7734C19.0703 11.1305 18.5794 11.5054 18.0929 11.8847C18.5749 11.5009 19.0703 11.1305 19.5746 10.7734Z" fill="url(#paint1_radial_6109_6635)"/>
<path d="M91.1906 24.1943L104.155 54.002L110.725 24.1943H160.391L158.484 32.7979H145.731L137.996 67.9658H127.622L135.357 32.7979H119.198L111.446 67.9658H100.475L86.7814 36.5732L79.9347 67.9658H75.423C78.0874 63.7198 80.0941 59.0394 81.2921 54.1025C83.7442 44.2857 82.9329 33.8388 79.1466 24.4863L79.212 24.1943H91.1906Z" fill="black"/>
<path d="M207.158 23.4805C213.87 23.4805 220.481 25.6108 225.219 29.5908L219.388 36.3574C217.615 34.9085 215.549 33.8047 213.496 33.0186C210.775 31.9764 207.936 31.4366 205.583 31.4365C204.001 31.4365 202.593 31.7748 201.529 32.5684C200.406 33.4066 199.856 34.619 199.856 35.873C199.856 37.848 201.425 39.0234 202.571 39.6729C203.844 40.3944 205.544 41.0028 207.333 41.5762L207.341 41.5781C210.741 42.6527 214.629 44.0289 217.657 46.1533C220.627 48.2374 222.563 50.8841 222.563 54.5693C222.563 62.0629 216.097 68.8271 204.578 68.8271C196.711 68.8271 189.694 66.5364 185.048 62.9512L182.554 61.0273L181.015 67.9707H152.52L162.163 24.1992H172.537L164.802 59.3672H185.059L189.129 54.498C193.274 58.3201 199.629 60.6572 205.507 60.6572C207.195 60.6572 208.654 60.3334 209.75 59.5771C210.924 58.7666 211.519 57.5614 211.519 56.292C211.519 54.3729 210.188 53.1493 208.953 52.3926C207.694 51.6215 205.987 50.9871 204.124 50.3779L204.112 50.374L202.824 49.9561C199.783 48.9496 196.529 47.7047 193.919 45.8076C191.027 43.7063 189.03 40.8896 189.03 36.6631C189.03 31.5868 194.453 23.4805 207.158 23.4805Z" fill="black"/>
<path d="M50.1272 24.1943L50.8586 24.209C58.3654 24.5113 64.172 29.4636 64.1721 36.6631C64.1721 44.221 59.2347 50.0153 53.7532 51.9707L51.9749 52.6055L56.4807 67.9707H44.8733L41.6506 52.6396H32.6174L29.2522 67.9707H18.8801L28.5276 24.1943H50.1272ZM37.1331 32.2305L34.384 44.6084H45.3293C47.3479 44.6084 49.2853 44.1591 50.7708 43.0615C52.332 41.9077 53.2034 40.1714 53.2034 38.0957C53.2033 36.4275 52.6066 34.8988 51.4065 33.8018C50.2256 32.7223 48.6488 32.2305 46.9768 32.2305H37.1331Z" fill="black"/>
<path d="M79.9361 43.3754C79.4854 36.2124 77.0397 29.2502 72.9159 23.5554C67.1721 15.5221 58.3175 10.0907 48.9007 8.59558C39.4571 7.03355 29.71 9.4123 22.239 14.8393L19.579 10.778C19.0747 11.135 18.5838 11.5099 18.0973 11.8893C17.6778 12.224 17.2627 12.5676 16.8566 12.9157C16.8165 12.9514 16.7718 12.9827 16.7317 13.0184C14.0182 15.3793 11.6573 18.1017 9.68018 21.0651C11.5948 18.9318 13.7236 16.977 16.0801 15.2989L18.74 19.3602C26.211 13.9333 35.9626 11.5545 45.4017 13.1166C54.8186 14.6117 63.6731 20.0431 69.4169 28.0764C75.1965 36.0562 77.6957 46.5129 76.0043 56.5457C75.1206 61.9682 72.9873 67.1943 69.8945 71.8313C72.0367 69.4481 73.8754 66.8149 75.3839 64.0256C76.0712 62.7492 76.6916 61.4415 77.2316 60.1026C77.2494 60.058 77.2673 60.0134 77.2851 59.9687C77.4324 59.6072 77.5663 59.2413 77.7002 58.8753C77.7671 58.6923 77.8296 58.5049 77.8966 58.3219C78.0037 58.0095 78.1152 57.6926 78.2179 57.3802C78.3696 56.9072 78.508 56.4341 78.6374 55.961C78.691 55.7646 78.7401 55.5638 78.7936 55.363C78.8918 54.9836 78.9855 54.6043 79.0703 54.2249C79.1105 54.0464 79.1507 53.8679 79.1864 53.6938C79.3024 53.1404 79.4095 52.587 79.4988 52.0336C79.9852 49.1505 80.1147 46.2451 79.9361 43.3754Z" fill="#E9C968"/>
<path d="M82.0694 33.6775C81.0876 29.1967 79.3827 24.8497 76.9549 20.8866C71.2423 11.3627 61.4773 4.14604 50.3556 1.4638C39.2741 -1.28985 26.9161 0.575677 16.9012 6.72564L19.5656 10.7691L22.2256 14.8304C29.6966 9.40342 39.4481 7.02465 48.8873 8.58669C58.3041 10.0818 67.1587 15.5132 72.9025 23.5466C77.0263 29.2413 79.472 36.2035 79.9227 43.3666C80.1057 46.2407 79.9763 49.1416 79.4898 52.0158C79.4006 52.5737 79.2935 53.1271 79.1774 53.676C79.1417 53.8545 79.1016 54.033 79.0614 54.2071C78.9766 54.5865 78.8829 54.9658 78.7847 55.3452C78.7311 55.546 78.682 55.7424 78.6285 55.9432C78.4991 56.4207 78.3562 56.8938 78.209 57.3624C78.1063 57.6793 77.9992 57.9917 77.8876 58.3041C77.8251 58.4871 77.7582 58.6745 77.6913 58.8575C77.5574 59.2235 77.419 59.5894 77.2762 59.9509C77.2584 59.9956 77.2405 60.0402 77.2227 60.0848C76.6826 61.4237 76.0623 62.7314 75.375 64.0078L75.3661 64.0524C72.5276 69.3365 68.4752 74.0316 63.4857 77.5841C67.7433 75.0358 71.5101 71.6305 74.5761 67.6406C77.9858 63.2 80.5252 58.0408 81.8686 52.5023C83.4039 46.4192 83.4396 39.9167 82.0694 33.6775Z" fill="url(#paint2_linear_6109_6635)"/>
</g>
<defs>
<linearGradient id="paint0_linear_6109_6635" x1="6.18029e-05" y1="49.4562" x2="66.1596" y2="49.4562" gradientUnits="userSpaceOnUse">
<stop stop-color="#C3942D"/>
<stop offset="0.2528" stop-color="#FFF4A7"/>
<stop offset="0.3083" stop-color="#F3E294"/>
<stop offset="0.4185" stop-color="#DCBE6C"/>
<stop offset="0.5718" stop-color="#BE8D32"/>
<stop offset="0.5955" stop-color="#B9862C"/>
<stop offset="0.8226" stop-color="#E1C474"/>
<stop offset="0.8708" stop-color="#ECD586"/>
<stop offset="1" stop-color="#FCF8CC"/>
</linearGradient>
<radialGradient id="paint1_radial_6109_6635" cx="0" cy="0" r="1" gradientUnits="userSpaceOnUse" gradientTransform="translate(33.0798 49.4561) scale(35.9915 35.9914)">
<stop stop-color="#FFFBCC"/>
<stop offset="0.1171" stop-color="#FBEEB7"/>
<stop offset="0.3487" stop-color="#EFD88C"/>
<stop offset="0.3708" stop-color="#EED688"/>
<stop offset="0.6854" stop-color="#C19B0D"/>
<stop offset="1" stop-color="#D8B44E"/>
</radialGradient>
<linearGradient id="paint2_linear_6109_6635" x1="16.9077" y1="38.9102" x2="83.0615" y2="38.9102" gradientUnits="userSpaceOnUse">
<stop stop-color="#C3942D"/>
<stop offset="0.2528" stop-color="#FFF4A7"/>
<stop offset="0.3083" stop-color="#F3E294"/>
<stop offset="0.4185" stop-color="#DCBE6C"/>
<stop offset="0.5718" stop-color="#BE8D32"/>
<stop offset="0.5955" stop-color="#B9862C"/>
<stop offset="0.8226" stop-color="#E1C474"/>
<stop offset="0.8708" stop-color="#ECD586"/>
<stop offset="1" stop-color="#FCF8CC"/>
</linearGradient>
<clipPath id="clip0_6109_6635">
<rect width="241" height="88.3667" fill="white"/>
</clipPath>
</defs>
</svg>
